<?xml version="1.0" encoding="iso-8859-1"?>
<!-- Generator: Adobe Illustrator 19.0.0, SVG Export Plug-In . SVG Version: 6.00 Build 0)  -->
<svg version="1.1" id="Capa_1" xmlns="http://www.w3.org/2000/svg" xmlns:xlink="http://www.w3.org/1999/xlink" x="0px" y="0px"
	 viewBox="0 0 174.08 174.08" style="enable-background:new 0 0 174.08 174.08;" xml:space="preserve">
<rect x="5.12" y="47.787" style="fill:#FFFFFF;" width="40.96" height="40.96"/>
<path style="fill:#602F75;" d="M46.08,92.16H5.12c-1.884,0-3.413-1.529-3.413-3.413v-40.96c0-1.884,1.529-3.413,3.413-3.413h40.96
	c1.884,0,3.413,1.529,3.413,3.413v40.96C49.493,90.633,47.964,92.16,46.08,92.16z M8.533,85.333h34.133V51.2H8.533V85.333z"/>
<rect x="46.08" y="47.787" style="fill:#FFFFFF;" width="40.96" height="40.96"/>
<path style="fill:#602F75;" d="M87.04,92.16H46.08c-1.884,0-3.413-1.529-3.413-3.413v-40.96c0-1.884,1.529-3.413,3.413-3.413h40.96
	c1.884,0,3.413,1.529,3.413,3.413v40.96C90.453,90.633,88.924,92.16,87.04,92.16z M49.493,85.333h34.133V51.2H49.493V85.333z"/>
<rect x="87.04" y="47.787" style="fill:#FFFFFF;" width="40.96" height="40.96"/>
<path style="fill:#602F75;" d="M128,92.16H87.04c-1.884,0-3.413-1.529-3.413-3.413v-40.96c0-1.884,1.529-3.413,3.413-3.413H128
	c1.884,0,3.413,1.529,3.413,3.413v40.96C131.413,90.633,129.884,92.16,128,92.16z M90.453,85.333h34.133V51.2H90.453V85.333z"/>
<rect x="128" y="47.787" style="fill:#FFFFFF;" width="40.96" height="40.96"/>
<path style="fill:#602F75;" d="M168.96,92.16H128c-1.884,0-3.413-1.529-3.413-3.413v-40.96c0-1.884,1.529-3.413,3.413-3.413h40.96
	c1.884,0,3.413,1.529,3.413,3.413v40.96C172.373,90.633,170.844,92.16,168.96,92.16z M131.413,85.333h34.133V51.2h-34.133V85.333z"
	/>
<rect x="5.12" y="88.747" style="fill:#FFFFFF;" width="40.96" height="40.96"/>
<path style="fill:#602F75;" d="M46.08,133.12H5.12c-1.884,0-3.413-1.529-3.413-3.413v-40.96c0-1.884,1.529-3.413,3.413-3.413h40.96
	c1.884,0,3.413,1.529,3.413,3.413v40.96C49.493,131.593,47.964,133.12,46.08,133.12z M8.533,126.293h34.133V92.16H8.533V126.293z"/>
<rect x="46.08" y="88.747" style="fill:#FFE600;" width="40.96" height="40.96"/>
<path style="fill:#602F75;" d="M87.04,133.12H46.08c-1.884,0-3.413-1.529-3.413-3.413v-40.96c0-1.884,1.529-3.413,3.413-3.413h40.96
	c1.884,0,3.413,1.529,3.413,3.413v40.96C90.453,131.593,88.924,133.12,87.04,133.12z M49.493,126.293h34.133V92.16H49.493V126.293z"
	/>
<rect x="87.04" y="88.747" style="fill:#FFFFFF;" width="40.96" height="40.96"/>
<path style="fill:#602F75;" d="M128,133.12H87.04c-1.884,0-3.413-1.529-3.413-3.413v-40.96c0-1.884,1.529-3.413,3.413-3.413H128
	c1.884,0,3.413,1.529,3.413,3.413v40.96C131.413,131.593,129.884,133.12,128,133.12z M90.453,126.293h34.133V92.16H90.453V126.293z"
	/>
<rect x="128" y="88.747" style="fill:#FFFFFF;" width="40.96" height="40.96"/>
<path style="fill:#602F75;" d="M168.96,133.12H128c-1.884,0-3.413-1.529-3.413-3.413v-40.96c0-1.884,1.529-3.413,3.413-3.413h40.96
	c1.884,0,3.413,1.529,3.413,3.413v40.96C172.373,131.593,170.844,133.12,168.96,133.12z M131.413,126.293h34.133V92.16h-34.133
	V126.293z"/>
<rect x="5.12" y="129.707" style="fill:#EA3457;" width="40.96" height="40.96"/>
<path style="fill:#602F75;" d="M46.08,174.08H5.12c-1.884,0-3.413-1.529-3.413-3.413v-40.96c0-1.884,1.529-3.413,3.413-3.413h40.96
	c1.884,0,3.413,1.529,3.413,3.413v40.96C49.493,172.553,47.964,174.08,46.08,174.08z M8.533,167.253h34.133V133.12H8.533V167.253z"
	/>
<rect x="46.08" y="129.707" style="fill:#EA3457;" width="40.96" height="40.96"/>
<path style="fill:#602F75;" d="M87.04,174.08H46.08c-1.884,0-3.413-1.529-3.413-3.413v-40.96c0-1.884,1.529-3.413,3.413-3.413h40.96
	c1.884,0,3.413,1.529,3.413,3.413v40.96C90.453,172.553,88.924,174.08,87.04,174.08z M49.493,167.253h34.133V133.12H49.493V167.253z
	"/>
<rect x="87.04" y="129.707" style="fill:#FFFFFF;" width="40.96" height="40.96"/>
<path style="fill:#602F75;" d="M128,174.08H87.04c-1.884,0-3.413-1.529-3.413-3.413v-40.96c0-1.884,1.529-3.413,3.413-3.413H128
	c1.884,0,3.413,1.529,3.413,3.413v40.96C131.413,172.553,129.884,174.08,128,174.08z M90.453,167.253h34.133V133.12H90.453V167.253z
	"/>
<rect x="128" y="129.707" style="fill:#FFE600;" width="40.96" height="40.96"/>
<path style="fill:#602F75;" d="M168.96,174.08H128c-1.884,0-3.413-1.529-3.413-3.413v-40.96c0-1.884,1.529-3.413,3.413-3.413h40.96
	c1.884,0,3.413,1.529,3.413,3.413v40.96C172.373,172.553,170.844,174.08,168.96,174.08z M131.413,167.253h34.133V133.12h-34.133
	V167.253z"/>
<polyline style="fill:#FFFFFF;" points="15.36,68.267 25.6,75.093 35.84,58.027 "/>
<path style="fill:#00E7FF;" d="M25.6,78.507c-0.669,0-1.328-0.196-1.893-0.573l-10.24-6.827c-1.568-1.044-1.992-3.164-0.947-4.733
	s3.164-1.995,4.733-0.947l7.262,4.842l8.399-13.998c0.969-1.618,3.065-2.142,4.683-1.171c1.616,0.969,2.14,3.067,1.171,4.683
	L28.527,76.85c-0.48,0.8-1.266,1.369-2.178,1.574C26.102,78.481,25.849,78.507,25.6,78.507z"/>
<polyline style="fill:#FFFFFF;" points="15.36,109.227 25.6,116.053 35.84,98.987 "/>
<path style="fill:#00E7FF;" d="M25.6,119.467c-0.669,0-1.328-0.196-1.893-0.573l-10.24-6.827c-1.568-1.044-1.992-3.164-0.947-4.733
	c1.044-1.568,3.164-1.997,4.733-0.947l7.262,4.842l8.399-13.998c0.969-1.616,3.065-2.14,4.683-1.171
	c1.616,0.969,2.14,3.067,1.171,4.683l-10.24,17.067c-0.48,0.8-1.266,1.369-2.178,1.574C26.102,119.441,25.849,119.467,25.6,119.467z
	"/>
<polyline style="fill:#FFFFFF;" points="97.28,109.227 107.52,116.053 117.76,98.987 "/>
<path style="fill:#00E7FF;" d="M107.52,119.467c-0.669,0-1.328-0.196-1.893-0.573l-10.24-6.827
	c-1.568-1.044-1.992-3.164-0.947-4.733c1.045-1.568,3.164-1.997,4.733-0.947l7.262,4.842l8.399-13.998
	c0.968-1.616,3.067-2.14,4.683-1.171c1.616,0.969,2.14,3.067,1.171,4.683l-10.24,17.067c-0.48,0.8-1.266,1.369-2.178,1.574
	C108.022,119.441,107.769,119.467,107.52,119.467z"/>
<polyline style="fill:#FFFFFF;" points="138.24,109.227 148.48,116.053 158.72,98.987 "/>
<path style="fill:#00E7FF;" d="M148.48,119.467c-0.669,0-1.328-0.196-1.893-0.573l-10.24-6.827
	c-1.568-1.044-1.992-3.164-0.947-4.733c1.046-1.568,3.164-1.997,4.733-0.947l7.262,4.842l8.399-13.998
	c0.968-1.616,3.065-2.14,4.683-1.171c1.616,0.969,2.14,3.067,1.171,4.683l-10.24,17.067c-0.48,0.8-1.266,1.369-2.178,1.574
	C148.982,119.441,148.729,119.467,148.48,119.467z"/>
<polyline style="fill:#FFFFFF;" points="56.32,68.267 66.56,75.093 76.8,58.027 "/>
<path style="fill:#00E7FF;" d="M66.56,78.507c-0.669,0-1.328-0.196-1.893-0.573l-10.24-6.827c-1.568-1.044-1.992-3.164-0.947-4.733
	c1.045-1.568,3.162-1.995,4.733-0.947l7.262,4.842l8.399-13.998c0.969-1.618,3.067-2.142,4.683-1.171
	c1.616,0.969,2.14,3.067,1.171,4.683L69.487,76.85c-0.48,0.8-1.266,1.369-2.178,1.574C67.062,78.481,66.809,78.507,66.56,78.507z"/>
<polyline style="fill:#FFFFFF;" points="97.28,68.267 107.52,75.093 117.76,58.027 "/>
<path style="fill:#00E7FF;" d="M107.52,78.507c-0.669,0-1.328-0.196-1.893-0.573l-10.24-6.827c-1.568-1.044-1.992-3.164-0.947-4.733
	s3.164-1.995,4.733-0.947l7.262,4.842l8.399-13.998c0.968-1.618,3.067-2.142,4.683-1.171c1.616,0.969,2.14,3.067,1.171,4.683
	l-10.24,17.067c-0.48,0.8-1.266,1.369-2.178,1.574C108.022,78.481,107.769,78.507,107.52,78.507z"/>
<polyline style="fill:#FFFFFF;" points="97.28,150.187 107.52,157.013 117.76,139.947 "/>
<path style="fill:#00E7FF;" d="M107.52,160.427c-0.669,0-1.328-0.196-1.893-0.573l-10.24-6.827
	c-1.568-1.044-1.992-3.164-0.947-4.733c1.045-1.568,3.164-1.995,4.733-0.947l7.262,4.842l8.399-13.998
	c0.968-1.618,3.067-2.142,4.683-1.171c1.616,0.969,2.14,3.067,1.171,4.683l-10.24,17.067c-0.48,0.8-1.266,1.369-2.178,1.574
	C108.022,160.401,107.769,160.427,107.52,160.427z"/>
<polyline style="fill:#FFFFFF;" points="168.96,26.278 168.96,47.787 5.12,47.787 5.12,13.653 168.96,13.653 "/>
<path style="fill:#602F75;" d="M168.96,51.2H5.12c-1.884,0-3.413-1.529-3.413-3.413V13.653c0-1.884,1.529-3.413,3.413-3.413h163.84
	c1.884,0,3.413,1.529,3.413,3.413s-1.529,3.413-3.413,3.413H8.533v27.307h157.013V26.278c0-1.884,1.529-3.413,3.413-3.413
	s3.413,1.529,3.413,3.413v21.509C172.373,49.673,170.844,51.2,168.96,51.2z"/>
<rect x="8.533" y="27.307" style="fill:#FFE600;" width="157.013" height="17.067"/>
<g>
	<path style="fill:#EA3457;" d="M52.907,27.307L52.907,27.307c-3.77,0-6.827-3.057-6.827-6.827V6.827C46.08,3.057,49.137,0,52.907,0
		l0,0c3.77,0,6.827,3.057,6.827,6.827V20.48C59.733,24.25,56.677,27.307,52.907,27.307z"/>
	<path style="fill:#EA3457;" d="M121.173,27.307L121.173,27.307c-3.77,0-6.827-3.057-6.827-6.827V6.827
		c0-3.77,3.057-6.827,6.827-6.827l0,0C124.943,0,128,3.057,128,6.827V20.48C128,24.25,124.943,27.307,121.173,27.307z"/>
</g>
<g>
</g>
<g>
</g>
<g>
</g>
<g>
</g>
<g>
</g>
<g>
</g>
<g>
</g>
<g>
</g>
<g>
</g>
<g>
</g>
<g>
</g>
<g>
</g>
<g>
</g>
<g>
</g>
<g>
</g>
</svg>
