<svg height="480pt" viewBox="0 -8 480 480" width="480pt" xmlns="http://www.w3.org/2000/svg" xmlns:xlink="http://www.w3.org/1999/xlink"><linearGradient id="a"><stop offset="0" stop-color="#e93e3a"/><stop offset=".36" stop-color="#ed683c"/><stop offset=".716" stop-color="#f3903f"/><stop offset="1" stop-color="#fdc70c"/></linearGradient><linearGradient id="b" gradientUnits="userSpaceOnUse" x1="344.544" x2="342.72" xlink:href="#a" y1="472.712" y2="-9.536"/><linearGradient id="c" gradientUnits="userSpaceOnUse" x1="328.536" x2="326.712" xlink:href="#a" y1="472.768" y2="-9.48"/><linearGradient id="d" gradientUnits="userSpaceOnUse" x1="248.552" x2="246.728" xlink:href="#a" y1="473.072" y2="-9.176"/><linearGradient id="e" gradientUnits="userSpaceOnUse" x1="344.184" x2="342.36" xlink:href="#a" y1="472.712" y2="-9.536"/><linearGradient id="f" gradientUnits="userSpaceOnUse" x1="440.544" x2="438.72" xlink:href="#a" y1="472.344" y2="-9.904"/><linearGradient id="g" gradientUnits="userSpaceOnUse" x1="344.912" x2="343.088" xlink:href="#a" y1="472.712" y2="-9.544"/><linearGradient id="h" gradientUnits="userSpaceOnUse" x1="201" x2="199.176" xlink:href="#a" y1="473.256" y2="-9"/><linearGradient id="i" gradientUnits="userSpaceOnUse" x1="81.064" x2="79.24" xlink:href="#a" y1="473.704" y2="-8.544"/><linearGradient id="j" gradientUnits="userSpaceOnUse" x1="161.064" x2="159.24" xlink:href="#a" y1="473.4" y2="-8.848"/><linearGradient id="k" gradientUnits="userSpaceOnUse" x1="241.064" x2="239.24" xlink:href="#a" y1="473.104" y2="-9.152"/><linearGradient id="l" gradientUnits="userSpaceOnUse" x1="80.704" x2="78.88" xlink:href="#a" y1="473.704" y2="-8.544"/><linearGradient id="m" gradientUnits="userSpaceOnUse" x1="160.704" x2="158.88" xlink:href="#a" y1="473.408" y2="-8.848"/><linearGradient id="n" gradientUnits="userSpaceOnUse" x1="321.104" x2="319.28" xlink:href="#a" y1="472.8" y2="-9.448"/><path d="m344 192c-75.109375 0-136 60.890625-136 136s60.890625 136 136 136 136-60.890625 136-136c-.082031-75.074219-60.925781-135.917969-136-136zm0 256c-66.273438 0-120-53.726562-120-120s53.726562-120 120-120 120 53.726562 120 120c-.074219 66.242188-53.757812 119.925781-120 120zm0 0" fill="url(#b)"/><path d="m352 305.472656v-49.472656h-16v49.472656c-6.777344 2.417969-12.109375 7.75-14.527344 14.527344h-33.472656v16h33.472656c3.699219 10.53125 14.1875 17.109375 25.28125 15.855469 11.09375-1.257813 19.84375-10.007813 21.101563-21.101563 1.253906-11.09375-5.324219-21.582031-15.855469-25.28125zm-8 30.527344c-4.417969 0-8-3.582031-8-8s3.582031-8 8-8 8 3.582031 8 8-3.582031 8-8 8zm0 0" fill="url(#c)"/><path d="m240 320h16v16h-16zm0 0" fill="url(#d)"/><path d="m336 416h16v16h-16zm0 0" fill="url(#e)"/><path d="m432 320h16v16h-16zm0 0" fill="url(#f)"/><path d="m336 224h16v16h-16zm0 0" fill="url(#g)"/><path d="m16 344v-232h368v72h16v-112c-.027344-22.082031-17.917969-39.972656-40-40h-56v-8c0-13.253906-10.746094-24-24-24s-24 10.746094-24 24v8h-112v-8c0-13.253906-10.746094-24-24-24s-24 10.746094-24 24v8h-56c-22.082031.027344-39.9726562 17.917969-40 40v272c.0273438 22.082031 17.917969 39.972656 40 40h160v-16h-160c-13.253906 0-24-10.746094-24-24zm256-320c0-4.417969 3.582031-8 8-8s8 3.582031 8 8v32c0 4.417969-3.582031 8-8 8s-8-3.582031-8-8zm-160 0c0-4.417969 3.582031-8 8-8s8 3.582031 8 8v32c0 4.417969-3.582031 8-8 8s-8-3.582031-8-8zm-72 24h56v8c0 13.253906 10.746094 24 24 24s24-10.746094 24-24v-8h112v8c0 13.253906 10.746094 24 24 24s24-10.746094 24-24v-8h56c13.253906 0 24 10.746094 24 24v24h-368v-24c0-13.253906 10.746094-24 24-24zm0 0" fill="url(#h)"/><path d="m112 176c0-8.835938-7.164062-16-16-16h-32c-8.835938 0-16 7.164062-16 16v32c0 8.835938 7.164062 16 16 16h32c8.835938 0 16-7.164062 16-16zm-48 32v-32h32v32zm0 0" fill="url(#i)"/><path d="m192 176c0-8.835938-7.164062-16-16-16h-32c-8.835938 0-16 7.164062-16 16v32c0 8.835938 7.164062 16 16 16h32c8.835938 0 16-7.164062 16-16zm-48 32v-32h32v32zm0 0" fill="url(#j)"/><path d="m272 200v-24c0-8.835938-7.164062-16-16-16h-32c-8.835938 0-16 7.164062-16 16v32c0 8.835938 7.164062 16 16 16h16v-16h-16v-32h32v24zm0 0" fill="url(#k)"/><path d="m96 256h-32c-8.835938 0-16 7.164062-16 16v32c0 8.835938 7.164062 16 16 16h32c8.835938 0 16-7.164062 16-16v-32c0-8.835938-7.164062-16-16-16zm-32 48v-32h32v32zm0 0" fill="url(#l)"/><path d="m176 256h-32c-8.835938 0-16 7.164062-16 16v32c0 8.835938 7.164062 16 16 16h32c8.835938 0 16-7.164062 16-16v-32c0-8.835938-7.164062-16-16-16zm-32 48v-32h32v32zm0 0" fill="url(#m)"/><path d="m352 184v-8c0-8.835938-7.164062-16-16-16h-32c-8.835938 0-16 7.164062-16 16v8h16v-8h32v8zm0 0" fill="url(#n)"/></svg>